PathFileType	4	(X/Y/Z)	c:/Users/goper/Files/vsCode/490R/osim_files/A04/A04_SSWS_05.trc
DataRate	CameraRate	NumFrames	NumMarkers	Units                	OrigDataRate	OrigDataStartFrame	OrigNumFrames
120.00	120.00	8	36	mm	120.0	607	1212
                Frame#	Time	LPSIS			LASIS			LTH1			LTH2			LTH3			LTH4			LLFE			LMFE			LSH1			LSH2			LSH3			LSH4			LLMAL			LMMAL			LCAL			LMTP5			LTOE			LMTP1			RPSIS			RASIS			RTH1			RTH2			RTH3			RTH4			RLFE			RMFE			RSH1			RSH2			RSH3			RSH4			RLMAL			RMMAL			RCAL			RMTP1			RTOE			RMTP5		
		X1	Y1	Z1	X2	Y2	Z2	X3	Y3	Z3	X4	Y4	Z4	X5	Y5	Z5	X6	Y6	Z6	X7	Y7	Z7	X8	Y8	Z8	X9	Y9	Z9	X10	Y10	Z10	X11	Y11	Z11	X12	Y12	Z12	X13	Y13	Z13	X14	Y14	Z14	X15	Y15	Z15	X16	Y16	Z16	X17	Y17	Z17	X18	Y18	Z18	X19	Y19	Z19	X20	Y20	Z20	X21	Y21	Z21	X22	Y22	Z22	X23	Y23	Z23	X24	Y24	Z24	X25	Y25	Z25	X26	Y26	Z26	X27	Y27	Z27	X28	Y28	Z28	X29	Y29	Z29	X30	Y30	Z30	X31	Y31	Z31	X32	Y32	Z32	X33	Y33	Z33	X34	Y34	Z34	X35	Y35	Z35	X36	Y36	Z36

607	5.05000	-218.53540	1049.23010	317.26013	-439.09067	1010.16736	406.98615	-389.78488	657.21729	467.43497	-395.88806	613.22516	470.91745	-450.21576	662.21771	474.07889	-449.18460	617.30084	476.79922	-420.30640	503.25354	468.73624	-453.80646	485.88892	333.87476	-319.92401	469.43875	454.80676	-289.61569	438.52356	448.60678	-359.46680	421.33994	450.74509	-322.86655	398.61084	443.53210	-60.25642	286.54285	372.55029	-91.63516	262.72812	293.81671	-6.73952	314.60815	301.91971	-77.10333	141.27376	422.12463	-125.39918	104.13491	372.46234	-113.52141	107.67197	324.22449	-220.74812	1040.37695	210.83453	-448.74802	1021.71649	121.38474	-393.35373	710.15088	91.65482	-408.81656	672.05933	93.19948	-453.45844	727.21808	81.36754	-462.19406	681.06250	86.77622	-486.41730	548.56348	117.50397	-501.96640	550.39319	230.72513	-428.58789	336.95889	133.99300	-432.28134	290.26813	144.20146	-489.27310	332.98380	126.61693	-482.87030	286.40518	134.12259	-447.40332	96.28123	148.13251	-483.10974	112.14564	280.29721	-386.39020	56.71853	233.33818	-611.97522	61.89611	255.23447	-631.44818	82.19379	207.06345	-594.76044	51.80012	137.21629
608	5.05833	-227.49275	1051.08435	316.05499	-448.70966	1013.59045	407.04956	-406.61697	661.78784	467.22205	-413.25577	617.97968	471.59753	-466.92767	667.74200	473.58603	-466.52057	622.82806	477.21548	-440.16760	507.88666	468.95798	-473.28506	491.09064	334.06323	-339.85226	473.51038	455.26901	-309.73029	442.40179	449.17783	-379.69952	425.70212	451.09018	-343.42886	402.69946	443.87943	-81.13412	289.16006	373.09778	-111.67410	265.29788	294.31049	-26.66835	316.73276	302.99814	-99.48152	144.08655	422.64075	-147.76831	107.37001	372.63089	-135.48895	110.71310	324.56992	-229.70731	1042.11951	209.60828	-457.86224	1022.86823	121.36852	-399.18082	711.49310	91.31494	-414.21652	672.87006	92.93021	-459.62723	727.70416	81.48376	-467.99680	681.78369	86.82662	-490.01437	548.62292	117.61622	-506.09344	550.07739	230.74547	-430.51724	337.51050	134.32298	-433.85196	290.71460	144.40640	-491.07458	333.11948	127.03889	-484.41061	286.61771	134.44841	-448.24686	96.48397	148.52571	-483.55692	112.19514	280.39236	-386.12891	57.18454	233.02646	-612.13422	61.49773	255.47365	-631.72864	81.79492	207.29628	-594.95880	51.68638	137.36252
609	5.06667	-236.30190	1053.11462	314.97900	-457.49353	1016.52032	406.71228	-423.49097	665.88611	467.07227	-430.89783	622.21558	472.09647	-483.83871	672.87390	473.12393	-484.05316	628.02551	477.41910	-459.88568	512.15112	469.14609	-492.60040	495.96112	334.08325	-359.86310	476.98972	455.75461	-329.84973	445.64453	449.71033	-399.97525	429.46329	451.26169	-363.85712	406.23999	444.19370	-102.74559	290.76669	373.95605	-132.56490	267.17740	294.71597	-47.37525	318.13947	304.39484	-122.49501	145.65775	423.01370	-170.42151	109.31232	372.50882	-157.56822	112.70897	324.57730	-238.52577	1043.90295	208.55019	-466.94534	1024.09180	121.27126	-404.76605	712.85986	91.06561	-419.29709	673.69672	92.73640	-465.66748	728.20813	81.73116	-473.45892	682.40710	86.77634	-493.89044	548.85144	118.18537	-509.53696	549.94495	230.97650	-432.07510	337.99313	134.75252	-435.32852	291.14304	144.72684	-492.63080	333.29733	127.38517	-485.58484	287.01593	134.70247	-448.70673	96.84853	148.71457	-483.99927	112.24270	280.52695	-386.33228	57.57015	233.16476	-612.28259	61.07727	255.65224	-631.95483	81.42440	207.49596	-595.12573	51.60038	137.49626
610	5.07500	-245.13518	1055.30652	314.02383	-465.51550	1019.28906	406.42807	-440.26218	669.53833	467.15778	-448.55331	625.99933	472.39221	-500.53607	677.56921	473.00821	-501.61322	632.90900	477.48999	-479.51389	516.09546	469.20621	-511.67697	500.73807	333.85611	-379.66501	479.94183	456.25806	-350.10330	448.31668	450.20572	-420.48373	432.86075	451.36459	-384.47913	409.33908	444.40036	-124.65514	291.45468	375.11487	-154.33513	268.52655	295.41364	-68.73194	318.75134	306.05734	-145.68137	146.20630	423.36902	-193.51581	110.21597	372.26852	-180.18103	113.85180	324.59445	-247.38287	1045.69763	207.67169	-475.58228	1025.10950	121.01945	-410.10233	714.23798	90.91456	-424.18723	674.59521	92.83260	-470.35590	728.51874	81.43168	-478.20358	683.05951	86.58012	-496.55438	548.94019	118.00690	-512.77881	549.96075	231.38710	-433.51541	338.41974	135.19189	-436.52798	291.72769	145.04372	-494.33057	333.51758	127.82906	-487.06473	287.09473	135.12497	-449.10010	97.17888	148.84898	-484.49673	112.29516	280.45224	-386.55157	57.86142	233.28893	-612.43036	60.66233	255.84569	-632.19312	81.03107	207.71506	-595.22632	51.52992	137.59753
611	5.08333	-253.86835	1057.28552	313.10501	-474.89157	1022.26746	405.94980	-457.11728	672.94733	467.36142	-466.02921	629.32733	472.35126	-517.14777	681.85590	472.91116	-520.04114	637.91113	476.03091	-499.14563	519.87195	468.98413	-530.57373	505.48056	333.45096	-399.55798	482.63705	456.56509	-370.40918	450.61316	450.51672	-440.93631	435.97284	451.21658	-405.10422	412.09341	444.38910	-146.55992	291.17523	376.34073	-176.21036	268.99615	296.51059	-90.17754	318.33167	307.57407	-169.03191	145.85349	423.73370	-217.09352	110.74326	372.35492	-203.59026	114.53500	324.68002	-256.21552	1047.44629	206.80000	-484.50211	1026.12195	120.67237	-415.18259	715.61395	90.86944	-428.90027	675.43805	92.88159	-475.72299	728.88434	81.57621	-482.55170	682.61621	86.97876	-499.47714	549.06122	118.28783	-515.45624	550.03760	231.90518	-434.70853	338.79828	135.51341	-437.81171	292.04062	145.32419	-495.65186	333.68735	128.25951	-488.34067	287.32477	135.44107	-449.47809	97.51796	149.03192	-484.94305	112.40462	280.17007	-386.69400	58.19346	233.32658	-612.59369	60.32477	255.95857	-632.38501	80.70914	207.88081	-595.34790	51.51285	137.66649
612	5.09167	-262.62927	1059.33533	312.26831	-483.38010	1024.72290	405.43991	-473.45804	676.01953	467.44815	-483.24030	632.56024	472.03394	-533.41248	686.02570	472.77728	-537.00665	641.97339	475.55881	-518.46747	523.76837	468.54788	-548.99207	510.36145	333.05850	-419.42676	485.10602	456.62872	-390.50046	452.70825	450.73660	-461.12360	439.16400	451.13980	-426.19977	413.88776	444.76941	-168.26065	290.12619	377.60715	-198.19640	268.91751	297.61096	-111.39452	316.74335	309.15564	-193.10799	144.85806	424.04953	-241.66377	110.79349	372.41412	-227.64867	114.71500	325.35684	-264.90845	1049.23279	206.08228	-493.26276	1027.16687	120.34814	-419.99973	716.97473	90.93798	-433.49805	676.37360	93.02031	-480.80414	729.26013	81.76417	-486.74219	682.45422	87.39258	-502.27792	549.15723	118.55480	-517.95062	550.05542	232.49152	-435.92261	338.97849	135.98547	-438.79642	292.41739	145.60675	-496.91583	333.91751	128.54436	-489.21338	287.49216	135.73990	-449.71313	97.90289	149.16428	-485.23877	112.45969	279.90173	-386.78452	58.51677	233.34306	-612.72058	60.04793	256.04373	-632.58563	80.46021	207.99179	-595.42633	51.46771	137.74594
613	5.10000	-271.33194	1061.33374	311.58212	-492.07623	1027.05981	404.91315	-489.41525	679.09039	467.57275	-500.09180	635.88013	471.71295	-549.25238	690.32288	472.42282	-553.60107	646.14441	475.04749	-537.40393	527.73016	468.00003	-566.69977	515.49445	332.86499	-438.78586	487.49023	456.63760	-410.49789	454.58743	450.77405	-481.42148	442.25677	450.71072	-446.92285	416.33698	444.48492	-190.40280	288.19418	378.76968	-220.38283	268.07339	298.58890	-132.68556	314.21936	310.58942	-218.06689	143.32959	424.36209	-266.02856	110.28130	372.13672	-253.07077	114.10889	324.74164	-273.67990	1050.87476	205.43752	-501.68427	1028.06323	119.86793	-424.76315	718.22162	91.11533	-437.83868	677.22351	93.13020	-485.82822	729.51776	81.82984	-490.68906	681.90875	87.58953	-504.95840	549.38141	118.91762	-520.18225	550.00397	233.06871	-436.87173	339.31100	136.35030	-439.87222	292.72852	145.88428	-497.94351	334.06058	128.83839	-490.39395	287.71408	136.04466	-449.91769	98.21568	149.29860	-485.36591	112.73960	281.33755	-386.90167	58.77674	233.40523	-612.83337	59.83992	256.14102	-632.74609	80.24527	208.12373	-595.50006	51.45585	137.80156
614	5.10833	-280.06833	1063.13196	311.01410	-500.73547	1029.18335	404.34570	-505.15335	682.36658	467.26959	-516.54663	639.37286	471.33762	-565.30304	694.58423	471.24487	-569.83923	650.43646	474.52151	-555.88348	531.91101	467.25647	-582.14209	519.24445	330.18231	-458.94818	489.23083	456.15747	-430.36261	456.28271	450.67291	-501.77139	445.22324	449.86115	-467.44730	418.77856	444.09180	-213.19969	285.64716	379.76724	-242.82198	266.29852	299.08804	-154.35004	310.52884	311.77005	-244.22739	141.30760	424.63110	-293.64240	109.65678	372.43143	-278.92465	113.05266	324.60959	-282.29324	1052.48120	204.92964	-510.11099	1028.80518	119.43097	-429.90500	719.15173	91.29381	-441.99249	678.08020	93.26699	-490.59363	729.72504	81.94306	-494.89429	682.17267	87.80338	-507.35934	549.36212	119.22530	-522.31555	550.04541	233.53305	-438.93423	339.94498	136.02376	-440.73169	293.13443	146.17033	-499.15393	334.23230	129.12932	-491.13428	287.87213	136.34241	-450.18042	98.53113	149.44250	-485.67542	112.80401	281.42209	-386.99936	59.03663	233.42717	-612.93488	59.61696	256.22589	-632.89532	79.99957	208.23044	-595.57532	51.39882	137.87746
